<?xml version="1.0" standalone="no"?>
<!DOCTYPE svg PUBLIC "-//W3C//DTD SVG 20010904//EN"
 "http://www.w3.org/TR/2001/REC-SVG-20010904/DTD/svg10.dtd">
<svg version="1.0" xmlns="http://www.w3.org/2000/svg"
 width="768.000000pt" height="768.000000pt" viewBox="0 0 768.000000 768.000000"
 preserveAspectRatio="xMidYMid meet">
<metadata>
Created by potrace 1.11, written by Peter Selinger 2001-2013
</metadata>
<g transform="translate(0.000000,768.000000) scale(0.100000,-0.100000)"
fill="#000000" stroke="none">
<path d="M3822 7629 c-26 -65 -45 -139 -61 -235 l-12 -71 -54 -7 c-30 -3 -79
-15 -110 -27 -62 -23 -156 -103 -175 -148 -8 -21 -21 -31 -43 -35 -78 -15
-137 -80 -137 -150 0 -44 28 -96 65 -120 24 -16 25 -15 40 14 8 16 24 34 34
40 31 16 122 11 166 -9 l40 -18 -55 -6 c-30 -3 -89 -19 -132 -36 -103 -40
-187 -54 -276 -47 -69 7 -72 6 -61 -12 19 -30 70 -60 123 -72 54 -12 94 -8
233 21 99 20 173 25 173 10 0 -15 -61 -32 -143 -38 -76 -6 -77 -6 -60 -26 27
-30 113 -67 157 -67 28 0 37 -4 33 -14 -3 -8 -11 -34 -18 -57 -7 -24 -23 -56
-37 -71 -22 -24 -24 -33 -19 -78 6 -50 6 -51 -33 -78 -47 -33 -66 -70 -53
-108 7 -22 2 -41 -28 -103 -21 -42 -41 -98 -44 -124 -6 -45 -5 -48 13 -43 20
7 20 5 6 -41 -8 -26 -20 -90 -27 -142 l-12 -94 -134 202 c-134 201 -156 229
-168 217 -6 -6 52 -215 135 -485 37 -120 38 -125 20 -143 -10 -10 -18 -26 -18
-37 0 -23 37 -71 55 -71 30 0 44 -70 35 -173 -2 -18 6 -37 20 -52 26 -28 28
-24 -46 -105 -21 -22 -34 -48 -36 -70 -3 -34 -5 -36 -93 -69 -76 -29 -103 -35
-177 -35 -67 -1 -91 3 -103 15 -15 15 -12 17 32 34 26 9 94 42 151 72 100 53
103 56 89 76 -22 35 -76 57 -140 57 l-57 0 41 37 c23 20 61 63 86 95 53 70 50
72 -73 73 l-82 0 23 45 c32 63 55 146 55 197 0 48 -11 62 -79 102 -22 14 -64
52 -93 86 -115 133 -177 162 -307 143 -69 -10 -85 -10 -122 5 -23 9 -43 16
-44 14 -8 -10 26 -123 44 -148 13 -17 21 -32 19 -33 -38 -33 -145 -96 -164
-96 -32 0 -30 -13 6 -44 37 -30 117 -56 177 -56 24 0 43 -3 43 -7 0 -5 -16
-19 -36 -32 -33 -23 -84 -94 -84 -118 0 -7 17 -9 44 -6 l44 5 0 -74 0 -74 -51
13 c-28 7 -67 13 -85 13 l-34 0 4 -67 c5 -78 22 -119 78 -187 36 -44 40 -53
40 -105 l0 -56 -109 115 c-66 71 -127 126 -158 142 -136 75 -339 75 -475 1
-58 -32 -157 -132 -189 -193 -20 -39 -24 -59 -24 -145 0 -83 4 -107 22 -144
12 -25 21 -45 20 -45 -31 -8 -98 -55 -112 -78 -21 -36 -34 -171 -17 -182 6 -3
34 -1 63 5 77 17 142 -1 289 -79 276 -146 309 -157 450 -156 95 1 114 4 205
37 103 38 130 39 140 7 10 -32 -12 -57 -81 -91 -120 -59 -243 -52 -434 27 -49
20 -111 37 -147 41 l-63 6 0 -29 c0 -16 4 -45 10 -63 5 -19 8 -36 6 -38 -2 -2
-32 1 -67 6 -35 6 -93 12 -128 14 l-63 3 6 -55 c12 -101 70 -184 137 -198 34
-6 34 -5 13 -46 -15 -28 -43 -126 -44 -152 0 -8 25 -9 76 -4 106 10 185 50
260 132 31 34 63 66 71 70 15 9 43 -8 43 -25 0 -6 -42 -53 -93 -106 -181 -188
-247 -326 -247 -515 0 -157 44 -291 144 -442 66 -98 89 -164 89 -255 1 -48 -5
-88 -16 -112 -20 -47 -96 -129 -142 -154 -41 -22 -45 -45 -11 -79 34 -34 97
-49 154 -36 26 5 49 8 51 5 10 -9 -77 -88 -146 -131 -40 -26 -73 -49 -73 -53
0 -13 100 -42 165 -47 95 -7 167 14 227 66 25 22 51 54 58 71 7 16 14 30 17
30 2 0 20 -8 41 -19 20 -10 51 -22 69 -25 29 -7 33 -4 50 26 37 71 13 201 -57
305 -16 24 -25 43 -19 43 21 0 227 -218 275 -291 46 -69 52 -84 63 -168 15
-106 9 -123 -57 -165 -59 -39 -74 -37 -90 9 -17 50 -9 121 19 158 11 16 18 31
15 34 -14 14 -142 -18 -181 -45 -76 -53 -112 -163 -82 -250 14 -40 14 -43 -1
-37 -118 46 -337 105 -502 135 -103 18 -350 43 -358 35 -1 -1 35 -29 80 -63
46 -33 124 -102 173 -153 l90 -93 -35 -8 c-125 -31 -191 -53 -236 -79 -87 -49
-86 -50 34 -98 124 -50 288 -134 371 -190 l58 -40 -9 -58 c-5 -32 -20 -93 -34
-136 -31 -93 -29 -97 68 -178 286 -239 850 -454 1398 -533 285 -41 651 -46
920 -11 503 65 1013 234 1339 446 111 71 221 173 221 203 0 12 -11 55 -24 96
-13 41 -27 96 -30 122 l-7 47 48 35 c65 48 243 139 381 196 l114 47 -31 22
c-54 39 -157 81 -230 95 -40 8 -75 16 -78 20 -17 16 150 177 275 265 34 24 61
45 60 47 -6 6 -249 -17 -337 -32 -125 -20 -311 -67 -436 -109 -55 -18 -101
-32 -103 -30 -1 1 2 14 8 29 15 40 12 121 -6 164 -33 79 -105 128 -205 139
l-62 6 23 -30 c33 -46 40 -156 11 -201 -20 -32 -159 78 -147 116 3 9 10 51 16
92 9 67 17 84 67 159 58 86 166 202 241 260 l44 34 -37 -58 c-72 -111 -92
-213 -59 -295 19 -47 30 -49 102 -15 30 14 56 25 58 25 2 0 13 -18 24 -40 53
-104 205 -154 354 -115 108 28 108 28 5 98 -83 56 -140 110 -128 121 2 2 24 1
49 -3 61 -9 116 1 144 28 43 41 40 57 -21 98 -173 115 -190 306 -45 520 98
144 136 263 136 428 1 83 -4 124 -18 165 -48 140 -143 282 -250 374 -56 47
-78 88 -58 108 17 17 45 0 84 -52 69 -90 189 -150 303 -150 l52 0 -14 63 c-8
34 -23 77 -34 95 -10 18 -19 35 -19 36 0 2 14 6 32 10 42 8 110 80 126 133 6
22 12 59 12 81 0 40 -1 41 -32 37 -18 -2 -62 -6 -98 -9 -36 -3 -79 -8 -96 -12
l-32 -6 14 53 c8 29 14 60 14 68 0 24 -114 7 -217 -33 -180 -70 -271 -82 -382
-47 -82 25 -133 64 -129 98 6 47 28 50 117 15 150 -58 273 -65 405 -21 34 11
131 58 216 104 209 113 278 130 388 99 21 -6 22 -4 22 65 0 109 -36 170 -110
186 l-28 6 26 52 c23 44 27 64 27 137 0 111 -29 176 -117 264 -102 101 -223
144 -376 133 -97 -7 -163 -28 -232 -76 -58 -39 -232 -229 -227 -246 5 -16 88
-55 117 -55 24 0 26 -3 26 -54 0 -91 61 -160 184 -207 49 -19 52 -19 46 -2
-18 46 -15 72 17 149 l33 81 30 -23 c16 -13 43 -27 61 -30 l31 -6 -14 -40
c-34 -97 -122 -174 -239 -211 -101 -32 -310 -31 -405 2 -68 23 -145 68 -174
100 -16 17 -15 19 29 31 42 12 116 66 191 138 37 37 54 90 54 173 0 68 5 80
67 154 38 44 63 118 63 182 l0 43 -37 0 c-37 0 -93 -11 -123 -24 -13 -5 -15 6
-15 70 l0 76 48 -5 c26 -4 47 -4 47 -1 0 21 -48 89 -86 121 l-46 40 71 6 c75
6 156 41 178 76 10 16 8 19 -21 24 -18 3 -62 25 -98 50 l-65 44 19 22 c18 24
48 111 48 142 0 17 -3 17 -47 2 -39 -14 -58 -14 -122 -4 -121 18 -183 -10
-292 -130 -41 -45 -98 -97 -126 -116 -33 -21 -55 -43 -59 -59 -9 -34 19 -146
54 -214 l27 -55 -92 0 c-51 -1 -95 -4 -98 -7 -11 -10 53 -98 109 -150 l50 -48
-58 0 c-66 0 -117 -20 -140 -55 l-16 -24 133 -64 c72 -36 143 -69 157 -74 l25
-10 -35 -18 c-50 -26 -150 -16 -270 28 -94 33 -95 34 -93 65 2 24 -7 41 -47
85 -54 59 -61 82 -31 92 27 8 35 39 18 71 -14 26 -13 37 8 132 3 13 13 22 24
22 43 0 70 65 42 101 l-19 25 89 299 c60 199 86 302 79 309 -12 12 6 35 -148
-193 -73 -106 -134 -187 -136 -180 -2 8 -10 39 -17 69 -10 48 -44 152 -64 201
-4 12 1 18 19 23 l26 6 -24 64 c-13 35 -31 77 -40 94 -10 19 -12 33 -6 37 17
11 11 66 -11 102 -12 18 -18 39 -15 46 4 6 13 23 20 36 9 15 11 33 6 51 -4 15
-4 47 0 71 7 40 0 122 -15 170 -5 15 -1 19 16 19 21 0 21 3 17 73 -3 39 -12
87 -22 105 -9 17 -12 32 -6 32 17 0 11 76 -11 135 -12 31 -34 72 -50 90 l-30
33 31 48 c60 96 73 145 78 308 l4 149 -73 -64 c-41 -35 -111 -101 -156 -146
-59 -59 -83 -77 -83 -64 0 45 -44 152 -93 230 l-54 83 -21 -53z m-160 -494
c-3 -17 1 -27 13 -31 22 -9 50 9 49 30 -1 9 4 16 12 16 9 0 14 -11 14 -30 0
-23 -6 -33 -25 -42 -53 -24 -109 26 -75 68 17 19 18 18 12 -11z m-82 -90 c73
-37 115 -70 140 -110 30 -49 24 -53 -17 -13 -21 20 -74 55 -119 77 -53 28 -85
50 -93 67 -17 39 -13 49 12 27 12 -12 47 -33 77 -48z m-122 -1 c4 -42 31 -64
84 -71 112 -15 193 -100 213 -224 l7 -44 -37 60 c-20 33 -48 72 -63 88 -38 40
-119 77 -168 77 -25 0 -47 6 -54 15 -20 24 -68 18 -99 -13 -15 -15 -30 -34
-33 -42 -7 -22 -35 4 -43 41 -15 69 74 154 155 147 31 -3 35 -6 38 -34z m262
-342 c0 -14 -43 -50 -73 -61 -32 -12 -132 -13 -161 -2 -16 6 -11 10 25 19 25
6 66 20 90 31 45 20 119 28 119 13z m345 -222 c104 -15 164 -38 178 -67 9 -19
8 -26 -4 -34 -15 -10 -21 -9 -134 16 -97 21 -337 20 -430 -1 -38 -9 -86 -17
-105 -18 -31 -1 -35 2 -35 23 0 17 10 31 31 43 67 39 342 60 499 38z m55 -195
c82 -19 120 -38 120 -60 0 -24 -16 -26 -117 -9 -137 23 -365 23 -525 0 -70
-10 -134 -16 -143 -13 -24 10 -18 35 13 51 25 13 136 39 207 50 72 10 372 -2
445 -19z m-161 -617 c24 -88 27 -108 15 -108 -18 0 -12 -17 -75 228 -29 114
-55 198 -59 190 -4 -7 -31 -104 -60 -215 -38 -143 -57 -203 -67 -203 -9 0 -12
7 -9 18 14 48 136 512 137 519 0 7 28 -94 118 -429z m-304 -117 c-15 -14 -44
29 -121 178 -49 94 -92 171 -95 171 -4 0 -8 -81 -11 -180 -3 -116 -9 -185 -16
-192 -7 -7 -14 -9 -16 -7 -3 3 1 99 9 214 8 116 15 221 15 235 0 16 42 -53
119 -195 66 -121 118 -222 116 -224z m634 31 c1 -47 -2 -63 -11 -60 -10 3 -15
55 -20 188 -4 100 -9 184 -11 187 -3 2 -46 -75 -96 -171 -58 -112 -98 -176
-107 -176 -20 0 -28 -16 106 231 l115 212 12 -174 c6 -96 12 -202 12 -237z
m301 272 c-7 -20 -59 -108 -116 -195 -77 -118 -108 -157 -119 -153 -18 7 -30
-14 130 227 61 91 112 164 113 162 2 -2 -1 -20 -8 -41z m-1362 -161 c96 -144
118 -182 104 -185 -27 -6 -242 327 -242 374 0 18 7 9 138 -189z m619 -131
c-38 -2 -71 -1 -73 0 -1 2 10 55 25 118 16 63 32 129 36 145 6 25 13 7 44
-115 l37 -145 -69 -3z m373 85 l0 -113 -50 6 c-27 3 -53 9 -56 13 -5 5 95 207
103 207 2 0 3 -51 3 -113z m-690 3 l50 -99 -38 -6 c-92 -14 -85 -16 -78 24 3
20 6 69 6 109 0 39 2 72 5 72 3 0 27 -45 55 -100z m-672 -84 c38 -19 41 -43
16 -127 -26 -86 -71 -167 -121 -215 -60 -57 -48 -77 20 -34 56 35 118 53 173
48 l39 -4 -80 -79 c-54 -54 -102 -91 -148 -114 -37 -19 -70 -38 -73 -43 -12
-19 30 -19 84 1 106 40 222 45 254 13 9 -9 -103 -68 -262 -138 -35 -16 -79
-42 -98 -58 -72 -63 -92 -156 -48 -232 l23 -41 -31 7 c-51 11 -96 39 -117 73
-30 48 -23 180 14 261 15 32 25 61 23 63 -2 2 -17 -12 -34 -32 -37 -46 -62
-122 -62 -191 0 -116 -56 -22 -63 106 -4 73 -9 88 -36 124 -59 79 -84 128 -89
172 -4 42 -3 44 20 44 37 0 107 -27 144 -55 18 -14 35 -25 38 -25 11 0 6 28
-14 71 -11 25 -20 66 -20 95 0 60 19 164 31 164 13 0 69 -51 81 -74 7 -11 14
-39 17 -60 8 -53 27 -57 40 -8 6 22 26 72 45 113 44 96 66 181 66 260 l0 62
68 -65 c37 -36 82 -73 100 -82z m2162 -74 c12 -36 31 -84 42 -106 12 -23 28
-63 38 -90 21 -64 36 -68 42 -11 4 27 16 59 32 80 27 35 63 61 73 51 3 -3 12
-36 20 -73 16 -77 11 -139 -18 -195 -10 -20 -19 -42 -19 -48 0 -16 26 -12 41
7 20 24 109 63 145 63 l30 0 -6 -47 c-6 -49 -31 -106 -51 -119 -6 -3 -24 -27
-40 -52 -24 -38 -29 -57 -29 -106 0 -77 -14 -128 -45 -163 l-24 -28 -1 76 c0
64 -5 85 -30 136 -27 53 -84 124 -67 83 3 -8 18 -44 33 -80 36 -86 40 -203 8
-246 -30 -40 -63 -62 -111 -73 l-43 -9 20 25 c11 14 25 43 30 64 28 104 -50
198 -220 267 -58 24 -131 58 -164 76 -56 33 -58 34 -36 46 38 20 140 14 224
-14 86 -29 106 -32 106 -13 0 6 -35 30 -78 52 -55 28 -99 61 -152 115 l-75 75
45 3 c55 4 112 -11 162 -44 38 -24 68 -31 68 -16 0 5 -14 21 -31 38 -75 71
-139 205 -139 292 0 46 1 48 46 72 25 13 67 48 93 77 l46 52 7 -76 c4 -42 17
-106 28 -141z m-1800 84 c50 -75 52 -80 34 -93 -26 -19 -41 -16 -48 10 -3 12
-17 58 -31 101 -28 90 -27 90 45 -18z m1284 -7 c-14 -46 -29 -88 -33 -92 -4
-4 -20 -3 -35 2 l-26 11 56 85 c32 47 59 84 61 81 2 -2 -8 -41 -23 -87z m-725
-81 c-41 -29 -54 -33 -174 -45 -163 -16 -259 -36 -338 -68 -58 -23 -63 -24
-74 -8 -18 23 -16 30 10 48 80 52 329 100 541 104 l79 1 -44 -32z m416 6 c162
-23 288 -65 302 -100 3 -9 -1 -22 -9 -31 -14 -13 -20 -12 -58 7 -58 30 -191
57 -345 71 -118 11 -134 15 -172 42 -24 17 -43 32 -43 35 0 8 218 -8 325 -24z
m-375 -306 l0 -283 -112 -60 c-92 -49 -296 -179 -395 -251 -22 -16 -23 -15
-34 12 -13 35 -55 221 -64 287 l-6 48 88 90 c98 101 244 227 408 353 61 47
111 85 113 85 1 1 2 -126 2 -281z m190 173 c157 -122 354 -295 417 -367 l49
-56 -8 -61 c-10 -76 -55 -267 -67 -286 -7 -11 -16 -8 -48 16 -74 59 -280 189
-386 243 l-107 55 0 283 c0 241 2 282 14 275 8 -4 69 -50 136 -102z m-365 26
c-56 -42 -220 -180 -280 -236 -47 -44 -60 -52 -63 -38 -2 9 -10 17 -18 17 -15
0 -20 35 -5 44 8 5 1 70 -14 128 -6 24 -3 29 21 39 72 27 275 65 364 68 l25 0
-30 -22z m570 -3 c88 -13 178 -36 202 -51 8 -6 7 -25 -4 -76 -13 -56 -13 -73
-3 -92 13 -24 6 -50 -11 -40 -5 4 -12 -1 -15 -9 -5 -12 -23 0 -80 51 -41 36
-72 68 -70 70 2 3 27 -7 55 -21 60 -31 61 -31 61 -7 0 16 -11 22 -55 31 -30 6
-59 9 -65 5 -8 -5 -65 37 -189 142 l-26 22 55 -5 c30 -3 96 -12 145 -20z
m-2581 -471 c-14 -41 -17 -166 -5 -198 5 -13 10 6 14 58 4 53 13 93 31 129 15
29 24 42 21 28 -13 -58 -17 -131 -10 -167 l8 -38 17 75 c9 41 22 89 29 105 11
27 14 28 22 12 14 -24 -5 -112 -41 -192 l-28 -63 24 -11 c13 -6 24 -19 24 -29
0 -34 60 -140 100 -176 49 -44 137 -89 210 -107 79 -20 279 -17 360 5 82 22
167 67 221 117 23 22 51 39 62 39 19 0 19 -1 -4 -26 -63 -68 -187 -129 -325
-159 -119 -26 -140 -36 -66 -30 105 8 201 36 312 92 58 28 94 43 80 31 -60
-49 -182 -100 -380 -158 -31 -9 -29 -9 20 -5 91 9 220 45 310 86 47 21 76 32
65 23 -35 -27 -157 -86 -230 -111 l-70 -24 53 6 c29 3 85 17 124 30 40 13 73
23 75 21 2 -1 -22 -20 -51 -40 -89 -61 -87 -72 4 -23 85 46 160 80 160 74 0
-2 -21 -17 -47 -34 -57 -35 -186 -143 -180 -150 3 -2 27 11 54 30 57 41 194
119 199 114 2 -2 -27 -25 -66 -51 -80 -55 -181 -159 -211 -217 -11 -23 -19
-43 -17 -45 2 -2 21 19 41 46 49 66 144 143 228 185 91 46 96 44 18 -6 -97
-63 -182 -157 -229 -252 -39 -80 -67 -172 -49 -161 5 3 9 11 9 17 0 7 16 46
36 87 47 98 166 218 272 273 65 34 73 36 79 21 4 -12 0 -21 -11 -28 -163 -99
-257 -190 -313 -303 -36 -74 -38 -81 -38 -177 0 -93 3 -106 33 -170 29 -61 32
-78 32 -157 0 -58 -4 -89 -11 -89 -6 0 -27 16 -46 35 -19 19 -39 35 -43 35
-22 0 -18 -25 12 -78 31 -53 33 -63 32 -144 0 -48 -3 -91 -7 -94 -13 -13 -83
15 -111 45 -36 37 -49 103 -36 173 7 37 7 55 -1 62 -8 7 -13 8 -15 1 -27 -68
-94 -135 -135 -135 -15 0 -17 6 -13 38 11 80 28 122 70 173 48 59 59 86 50
123 -14 56 -71 41 -156 -40 -177 -169 -282 -420 -298 -717 l-7 -118 -58 93
c-73 117 -107 221 -114 349 -11 192 60 351 232 519 104 102 124 143 88 182
-24 26 -79 24 -106 -5 -12 -13 -42 -46 -67 -72 -47 -50 -135 -98 -202 -109
-38 -7 -38 -7 -38 26 0 62 30 99 115 144 44 22 81 46 83 52 6 18 -30 14 -83
-9 -108 -48 -208 6 -235 126 l-8 35 62 0 c35 0 98 -9 142 -21 143 -38 165 -42
176 -31 8 8 -6 18 -45 36 -55 24 -72 43 -87 97 -8 27 -7 29 21 29 17 0 75 -18
130 -39 134 -53 236 -75 314 -68 176 17 309 133 235 207 -32 32 -65 30 -175
-12 -58 -22 -103 -32 -165 -35 -111 -7 -186 12 -315 79 -302 157 -353 175
-446 158 l-39 -7 0 36 c1 46 32 116 60 131 12 6 42 10 67 9 57 -4 66 12 30 49
-89 93 -89 270 -2 369 l35 38 -22 -50 c-44 -104 -32 -241 30 -312 25 -30 25
-31 -5 52 -30 81 -4 232 51 300 15 19 16 19 5 -10 -31 -87 -30 -184 3 -264 13
-32 13 -29 14 60 0 97 12 150 46 207 26 42 29 41 12 -5z m4385 -29 c13 -35 21
-79 21 -122 1 -52 3 -63 11 -49 18 31 21 119 6 175 -8 28 -12 52 -10 52 2 0
16 -26 31 -57 24 -51 27 -70 27 -161 0 -81 2 -99 12 -86 15 21 33 104 33 152
0 36 -10 86 -25 127 -6 16 -3 15 14 -5 56 -67 72 -224 33 -312 -32 -73 -8 -57
29 18 43 87 45 168 6 263 l-26 63 25 -23 c98 -92 104 -302 10 -388 -41 -38
-34 -51 27 -51 82 0 127 -46 127 -128 l0 -40 -72 0 c-94 0 -140 -16 -318 -113
-173 -94 -240 -119 -340 -126 -88 -6 -152 5 -266 49 -74 28 -84 29 -110 17
-80 -38 -60 -122 41 -176 133 -70 258 -68 450 8 114 44 185 60 185 40 0 -22
-27 -76 -46 -92 -11 -9 -36 -22 -57 -29 -21 -6 -36 -17 -34 -23 6 -16 59 -10
137 14 36 12 105 23 154 26 l88 6 -7 -34 c-26 -124 -124 -178 -234 -129 -24
11 -52 20 -62 20 -38 0 -18 -27 37 -50 75 -31 134 -87 134 -128 0 -17 3 -37 6
-46 5 -12 -1 -14 -33 -9 -91 14 -145 44 -223 123 -41 42 -83 79 -93 83 -25 9
-66 -9 -76 -34 -15 -42 2 -70 99 -167 164 -165 232 -306 232 -482 0 -147 -44
-284 -134 -419 l-35 -51 -7 97 c-19 274 -102 496 -251 676 -56 68 -133 127
-165 127 -9 0 -25 -9 -34 -19 -25 -27 -13 -70 31 -124 45 -53 69 -107 78 -174
6 -46 5 -53 -10 -53 -35 0 -86 42 -111 91 -13 27 -28 49 -33 49 -5 0 -9 -44
-8 -97 2 -82 -1 -103 -17 -126 -19 -28 -83 -67 -110 -67 -18 0 -28 43 -28 121
0 47 6 70 31 114 17 30 31 62 31 70 0 21 -26 19 -42 -3 -7 -10 -25 -27 -40
-36 l-28 -18 0 95 c0 80 4 103 25 150 81 175 42 342 -114 498 -42 41 -106 95
-143 119 -44 28 -68 49 -68 62 0 17 2 17 34 4 61 -25 148 -87 206 -145 61 -60
100 -120 136 -209 29 -70 31 -56 4 29 -38 123 -142 259 -253 331 -70 45 -49
47 30 2 64 -36 183 -143 232 -209 l22 -30 -16 39 c-34 87 -156 209 -282 283
-24 14 -43 27 -43 29 0 9 128 -60 210 -113 74 -48 81 -51 55 -23 -26 28 -137
115 -201 158 -10 6 41 -17 114 -53 72 -36 132 -63 132 -61 0 2 -30 26 -67 52
-38 26 -71 50 -76 54 -4 3 31 -6 77 -22 47 -15 106 -31 133 -33 l48 -6 -70 25
c-78 28 -179 77 -210 100 -11 9 11 2 50 -15 75 -34 215 -72 305 -84 77 -10 61
-1 -54 29 -106 28 -261 99 -311 143 l-30 26 35 -22 c112 -71 267 -125 387
-135 77 -6 62 1 -77 34 -103 24 -231 85 -285 136 -33 31 -37 39 -22 42 10 2
38 -15 68 -42 57 -52 130 -89 221 -113 79 -21 271 -23 348 -4 163 41 271 134
310 268 8 27 20 43 33 47 11 3 17 10 14 18 -50 113 -61 150 -64 208 l-3 65 26
-53 c14 -29 28 -77 31 -108 4 -35 9 -51 14 -42 12 18 11 135 0 176 -15 51 6
27 28 -34z m-3679 -124 c0 -33 36 -96 70 -121 17 -13 46 -39 66 -57 37 -35
106 -71 139 -72 17 -1 15 -5 -15 -31 -148 -128 -458 -158 -648 -62 -62 31
-125 96 -153 156 -25 57 -24 64 11 72 17 4 44 18 60 32 28 23 30 23 36 6 3
-10 17 -46 31 -80 20 -49 24 -72 20 -108 l-7 -45 52 21 c115 45 169 107 176
200 4 57 6 59 32 59 15 0 47 11 71 24 55 30 59 31 59 6z m1154 -310 c20 -53
59 -97 102 -116 24 -10 46 -11 90 -4 77 13 232 13 311 0 42 -7 70 -7 90 1 72
27 119 115 130 245 9 107 27 95 21 -14 -6 -96 -26 -155 -73 -210 -48 -57 -69
-63 -171 -47 -109 18 -203 18 -309 1 -44 -7 -89 -10 -101 -6 -35 14 -100 96
-117 151 -17 52 -23 189 -9 203 4 4 10 -30 13 -76 4 -45 14 -103 23 -128z
m-39 -47 c24 -48 25 -56 12 -71 -8 -9 -17 -24 -20 -32 -12 -36 -63 130 -71
233 -5 61 -5 61 5 17 34 -140 36 -142 33 -30 l-3 105 9 -84 c6 -56 18 -101 35
-138z m817 74 c-5 -31 -6 -54 -2 -52 10 6 30 88 30 124 0 16 5 33 10 36 7 4 9
-2 6 -17 -3 -12 -8 -47 -11 -76 -3 -30 -17 -90 -32 -135 l-25 -81 -16 29 c-8
17 -19 33 -24 36 -5 3 1 23 13 43 25 43 48 130 51 196 l2 45 3 -45 c2 -25 0
-71 -5 -103z m84 19 c-17 -163 -84 -314 -186 -417 -75 -76 -144 -113 -251
-135 -68 -14 -83 -14 -150 0 -198 42 -330 168 -403 386 -23 72 -50 219 -40
229 9 9 14 -7 28 -85 41 -229 152 -390 326 -473 69 -33 82 -36 165 -36 83 0
96 3 168 37 108 52 190 134 245 248 45 91 82 219 82 282 0 27 4 37 11 32 8 -4
9 -27 5 -68z m-1606 -40 c0 -2 -8 -10 -17 -17 -16 -13 -17 -12 -4 4 13 16 21
21 21 13z m1177 -210 c33 -96 28 -227 -8 -247 -22 -11 -117 -14 -148 -4 -42
13 -47 156 -9 261 l12 35 70 -3 69 -3 14 -39z m-317 20 c0 0 -11 -23 -25 -50
-14 -27 -25 -61 -25 -74 0 -25 0 -25 -21 -6 -17 15 -20 27 -16 62 6 53 29 81
62 74 14 -2 25 -5 25 -6z m95 -22 c-31 -45 -39 -90 -31 -161 l7 -56 -23 15
c-50 33 -49 159 2 210 16 15 38 28 49 28 20 0 20 -1 -4 -36z m318 9 c48 -52
55 -178 11 -210 -26 -19 -36 -16 -29 7 16 50 8 130 -18 180 -23 45 -24 50 -8
50 9 0 29 -12 44 -27z m141 -54 c5 -32 3 -46 -10 -60 -20 -22 -34 -16 -34 15
0 13 -11 44 -24 69 l-25 46 27 3 c35 5 57 -20 66 -73z m-785 -75 c-13 -14 -73
-60 -134 -102 -60 -42 -140 -106 -177 -142 -59 -57 -68 -63 -68 -43 0 41 28
92 80 147 27 29 50 58 50 64 0 23 -18 20 -63 -12 -56 -40 -142 -78 -164 -74
-10 2 25 42 103 117 129 124 120 122 143 34 7 -24 16 -43 22 -43 19 0 158 146
165 174 6 27 8 26 37 -33 l30 -61 -24 -26z m989 87 c31 -51 141 -146 154 -133
4 4 13 31 21 60 l13 54 123 -114 c67 -62 117 -114 111 -116 -21 -7 -110 30
-165 70 -40 28 -60 37 -67 30 -8 -8 6 -30 46 -75 51 -58 86 -125 86 -165 0 -9
-23 8 -54 40 -59 60 -135 121 -230 183 -32 21 -73 52 -91 70 l-34 31 27 57
c15 31 27 56 28 56 1 1 15 -21 32 -48z m-928 -106 c10 -12 2 -25 -47 -76 -32
-34 -95 -88 -140 -120 -84 -61 -163 -141 -163 -165 0 -11 -44 -14 -240 -14
l-240 0 -1 -117 c-1 -113 -1 -117 -15 -84 -22 49 -20 156 3 217 54 141 232
319 330 330 17 2 6 -14 -48 -67 -38 -38 -69 -74 -69 -79 0 -15 100 -11 145 5
22 8 41 15 42 15 1 0 -7 -19 -17 -42 -23 -51 -26 -130 -6 -148 12 -9 27 1 83
61 38 39 126 113 198 164 72 51 139 102 149 114 23 25 21 25 36 6z m847 -11
c15 -15 80 -63 143 -107 63 -44 150 -116 193 -160 43 -44 79 -78 81 -76 13 15
26 51 26 71 -1 20 -13 58 -35 110 -6 16 -4 16 38 2 25 -8 68 -14 98 -12 l54 3
-73 77 c-62 65 -69 76 -48 74 66 -8 192 -112 262 -217 81 -123 103 -243 60
-341 -14 -31 -14 -26 -15 90 l-1 122 -232 0 -233 1 -26 43 c-27 43 -65 77
-189 166 -77 55 -153 141 -144 164 8 21 8 21 41 -10z m-807 -41 c0 -12 -83
-117 -139 -177 -34 -36 -76 -68 -106 -81 -28 -13 -57 -30 -64 -39 -14 -17 -41
-22 -41 -8 0 14 92 97 160 144 36 25 90 73 120 106 52 56 70 71 70 55z m941
-181 c53 -39 106 -84 118 -101 22 -30 22 -31 3 -31 -11 0 -26 7 -33 17 -8 9
-32 24 -55 34 -47 21 -126 97 -195 188 -66 87 -62 99 9 25 31 -34 100 -93 153
-132z m-912 86 c-17 -34 -60 -101 -109 -170 -3 -4 -18 -4 -32 0 l-27 7 58 67
c32 36 74 87 92 113 39 55 50 45 18 -17z m774 -91 c32 -37 58 -69 56 -71 -2
-2 -13 -6 -24 -10 -17 -5 -28 4 -58 44 -48 64 -109 175 -101 183 4 3 20 -13
37 -36 16 -23 57 -73 90 -110z m-693 93 c0 -19 -50 -141 -75 -185 -23 -38 -29
-43 -46 -35 -10 6 -19 15 -19 20 0 4 22 40 49 79 27 39 54 85 61 101 12 29 30
41 30 20z m550 -47 c18 -32 48 -80 67 -106 20 -26 34 -49 32 -50 -2 -2 -12 -8
-21 -16 -15 -11 -20 -7 -44 30 -32 51 -88 199 -75 199 5 0 24 -26 41 -57z
m-484 -12 c-6 -37 -61 -209 -69 -218 -2 -2 -16 1 -31 6 l-26 11 29 47 c16 27
41 81 57 121 30 79 50 95 40 33z m403 -3 c7 -24 30 -77 52 -118 36 -69 38 -76
22 -88 -9 -7 -22 -11 -28 -9 -10 4 -67 166 -78 225 -10 49 17 41 32 -10z m-68
-64 c11 -43 29 -99 40 -123 15 -35 17 -46 7 -53 -34 -21 -45 -9 -61 70 -24
113 -30 159 -23 178 9 25 14 16 37 -72z m-251 67 c0 -21 -32 -189 -41 -218
-11 -33 -23 -40 -47 -25 -10 7 -5 32 23 114 19 58 35 113 35 122 0 9 7 16 15
16 8 0 15 -4 15 -9z m75 -21 c4 -12 3 -70 0 -130 l-8 -110 -32 0 -32 0 13 50
c7 28 19 87 25 130 13 81 22 97 34 60z m96 -86 c9 -54 20 -112 24 -127 7 -27
6 -28 -26 -25 l-34 3 -3 128 c-3 159 13 168 39 21z m-643 -43 c10 -6 5 -11
-17 -20 -38 -16 -63 -4 -30 15 29 16 30 16 47 5z m122 -12 c12 -7 11 -8 -6 -9
-11 0 -29 7 -40 16 -18 14 -18 15 6 8 14 -3 32 -10 40 -15z m950 6 c-14 -8
-34 -14 -45 -14 -13 0 -8 5 15 14 46 18 61 18 30 0z m116 5 c20 -8 24 -14 16
-22 -8 -8 -19 -7 -42 2 -23 9 -28 15 -18 21 16 11 12 11 44 -1z m-1116 -45
c11 -13 7 -15 -23 -15 -36 0 -57 14 -35 23 24 10 46 7 58 -8z m1068 -2 c2 -9
-8 -13 -32 -13 -20 0 -36 4 -36 9 0 22 60 25 68 4z m-1132 -40 c38 -18 34 -18
-264 -21 l-302 -2 2 -448 3 -447 1128 -3 1127 -2 0 450 0 450 -295 0 c-190 0
-295 4 -295 10 0 6 9 10 19 10 11 0 23 5 26 10 4 6 115 10 301 10 l294 0 0
-914 c0 -990 0 -989 -56 -1168 -33 -104 -119 -272 -187 -363 -178 -239 -481
-461 -838 -614 l-97 -41 -78 34 c-284 121 -513 267 -692 440 -233 225 -364
481 -401 781 -7 59 -11 391 -11 968 l0 877 289 0 c253 0 293 -2 327 -17z m259
-3 l39 -20 -64 0 c-54 0 -67 3 -78 20 -11 19 -10 20 26 20 21 0 55 -9 77 -20z
m715 0 c-9 -17 -21 -20 -73 -20 l-62 1 35 19 c19 11 52 19 73 20 35 0 37 -2
27 -20z m-854 -4 c10 -8 16 -17 12 -21 -11 -11 -66 5 -72 21 -7 19 33 19 60 0z
m954 4 c0 -13 -34 -30 -62 -30 l-23 1 24 19 c24 21 61 27 61 10z m-890 -75
c11 -13 8 -15 -18 -15 -16 0 -35 7 -42 15 -11 13 -8 15 18 15 16 0 35 -7 42
-15z m820 0 c-7 -8 -26 -15 -42 -15 -26 0 -29 2 -18 15 7 8 26 15 42 15 26 0
29 -2 18 -15z m-747 -60 c-4 -17 -37 -17 -58 0 -19 14 -18 15 20 13 22 -2 39
-7 38 -13z m677 0 c-13 -16 -55 -20 -64 -6 -9 14 5 21 42 21 29 0 33 -2 22
-15z m-595 -44 c7 -13 -30 -24 -55 -16 -28 9 -15 25 20 25 16 0 31 -4 35 -9z
m520 -1 c3 -6 -1 -13 -9 -16 -22 -8 -68 4 -61 16 8 13 62 13 70 0z m-450 -27
c-79 -41 -115 -106 -95 -168 12 -36 64 -89 100 -100 12 -4 19 -9 17 -12 -10
-9 -85 37 -111 67 -47 56 -47 104 0 160 25 29 87 69 109 69 6 0 -3 -7 -20 -16z
m280 -18 c29 -13 35 -19 23 -22 -10 -3 -18 -9 -18 -14 0 -6 7 -6 19 1 28 14
29 14 51 -22 39 -64 15 -124 -65 -163 -65 -32 -128 -40 -197 -26 -137 29 -194
135 -113 211 62 58 210 75 300 35z m86 -2 c68 -45 88 -116 50 -179 -19 -31
-87 -81 -97 -71 -3 3 9 13 26 24 91 53 92 167 3 228 -21 14 -34 25 -30 25 4 0
26 -12 48 -27z m-1731 -4 c0 -11 -18 -41 -39 -67 -50 -59 -69 -105 -80 -190
-5 -37 -12 -76 -17 -86 -7 -17 -4 -18 31 -12 42 8 110 40 120 56 13 20 25 9
25 -23 0 -18 10 -53 23 -77 17 -36 33 -50 77 -72 30 -14 72 -29 94 -33 37 -6
38 -5 32 18 -3 14 -1 49 4 78 8 41 7 67 -4 109 -8 30 -13 56 -12 58 2 1 11 0
20 -4 14 -6 16 -44 16 -401 l0 -396 -62 64 c-35 35 -91 83 -126 106 l-63 42
68 32 c37 17 88 34 111 36 43 6 44 6 38 37 -10 50 -58 118 -98 139 -23 11 -57
19 -85 19 l-48 -1 0 44 c0 55 -26 92 -85 123 -52 26 -118 29 -161 6 l-30 -15
25 -34 c43 -56 32 -114 -25 -134 -44 -15 -63 -14 -89 7 -21 17 -22 18 -5 81
40 154 116 301 214 412 49 55 103 99 124 99 4 0 7 -9 7 -21z m3102 -7 c74 -58
153 -163 211 -277 37 -74 87 -225 87 -263 0 -46 -82 -52 -135 -11 -35 28 -33
69 6 114 l31 35 -36 15 c-78 33 -188 5 -226 -57 -12 -20 -20 -51 -20 -77 0
-41 -1 -43 -25 -37 -45 11 -107 -13 -150 -58 -37 -38 -70 -109 -60 -126 3 -4
24 -10 47 -13 24 -2 73 -19 111 -37 l67 -32 -57 -35 c-32 -19 -88 -63 -124
-99 l-66 -65 -6 382 c-6 332 -5 385 8 398 21 22 29 7 16 -32 -11 -33 -11 -227
-1 -227 3 0 32 7 65 15 98 26 145 73 159 161 l7 41 52 -28 c29 -15 69 -31 91
-35 35 -6 37 -5 28 12 -5 11 -13 44 -17 74 -11 89 -33 143 -80 199 -68 80 -56
122 17 63z m-1629 -269 c-7 -2 -19 -2 -25 0 -7 3 -2 5 12 5 14 0 19 -2 13 -5z
m120 0 c-7 -2 -19 -2 -25 0 -7 3 -2 5 12 5 14 0 19 -2 13 -5z m45 -118 c57
-26 64 -40 30 -51 -27 -9 -44 -10 -200 -12 -65 -1 -118 -6 -118 -11 0 -4 33
-11 73 -15 140 -14 162 -17 178 -32 20 -18 33 -18 25 1 -4 11 1 15 19 15 14 0
34 9 45 20 l20 20 0 -24 c0 -59 -82 -108 -185 -109 -76 -1 -124 15 -160 53
-105 109 107 222 273 145z m-1513 -1262 c-4 -10 -10 -37 -12 -60 -14 -114 80
-253 172 -253 23 0 27 -3 15 -10 -45 -29 -119 10 -171 90 -18 27 -34 48 -37
46 -11 -12 25 -84 61 -123 23 -25 34 -43 25 -43 -19 0 -71 56 -93 100 -10 19
-24 58 -30 85 l-13 50 -1 -51 c-1 -56 20 -127 46 -156 9 -10 11 -18 6 -18 -6
0 -25 21 -41 48 -28 43 -46 96 -55 162 -2 18 -6 11 -11 -23 -6 -33 -4 -60 6
-92 20 -58 12 -58 -14 2 -40 90 -3 199 84 242 53 26 73 27 63 4z m2848 3 c39
-16 82 -61 96 -99 15 -40 14 -112 -3 -152 -17 -40 -30 -48 -16 -9 13 33 13
115 0 134 -7 11 -10 2 -10 -31 0 -48 -45 -154 -76 -180 -11 -9 -10 -1 6 28 24
47 41 138 30 167 -5 15 -8 8 -13 -27 -4 -26 -16 -65 -26 -86 -24 -46 -77 -101
-98 -101 -9 0 -3 9 15 25 32 27 72 99 72 130 0 12 -10 4 -28 -26 -52 -81 -120
-123 -165 -101 l-22 11 23 0 c54 2 127 66 158 139 19 44 22 139 5 170 -10 18
-9 22 4 22 9 0 30 -6 48 -14z m-3498 -211 c219 -44 486 -131 615 -200 l45 -24
-33 -1 c-18 0 -59 13 -92 30 -90 45 -205 89 -305 116 -131 35 -156 29 -45 -11
101 -37 326 -143 318 -150 -2 -2 -47 14 -99 36 -98 43 -270 92 -304 87 -11 -2
10 -13 50 -27 97 -32 235 -97 235 -111 0 -6 -17 -2 -39 10 -55 28 -185 70
-213 69 -19 -1 -18 -3 12 -16 120 -50 170 -77 162 -85 -6 -6 -48 5 -107 27
-53 20 -99 34 -102 31 -3 -2 27 -21 67 -41 46 -23 69 -40 63 -46 -6 -6 -26 -3
-54 9 -25 11 -60 23 -79 27 -32 6 -33 6 -15 -7 11 -8 39 -25 62 -38 60 -33 44
-43 -25 -16 -64 26 -121 41 -109 30 4 -4 39 -26 77 -49 39 -23 67 -44 64 -47
-3 -4 -31 5 -62 19 -131 58 -214 75 -109 22 69 -35 157 -91 157 -101 0 -4 -28
6 -62 23 -76 38 -182 79 -206 79 -9 0 19 -20 63 -43 135 -73 195 -115 195
-137 0 -18 -5 -17 -52 14 -61 39 -238 129 -317 161 l-55 23 30 15 c44 23 140
46 222 53 40 4 72 9 72 11 0 24 -131 177 -213 250 l-51 46 60 -7 c32 -4 113
-18 179 -31z m4231 -57 c-79 -80 -156 -177 -156 -198 0 -3 42 -11 93 -18 91
-11 217 -47 217 -61 0 -4 -26 -18 -57 -30 -76 -31 -254 -124 -308 -161 -51
-35 -55 -36 -55 -10 0 14 26 34 93 73 50 30 112 67 137 82 l45 27 -34 -6 c-19
-4 -81 -29 -139 -56 -57 -27 -102 -44 -99 -37 2 6 44 35 93 64 117 69 126 75
94 67 -21 -5 -58 -20 -197 -81 -7 -3 -13 0 -13 6 0 6 35 29 77 53 42 23 72 43
66 45 -9 3 -93 -25 -155 -52 -11 -4 -18 -3 -18 4 0 6 26 25 57 43 71 40 56 47
-32 13 -92 -34 -102 -17 -15 25 38 19 70 37 70 41 0 10 -63 -8 -129 -37 -30
-14 -62 -22 -70 -19 -19 8 4 21 119 72 52 23 67 33 49 33 -30 0 -128 -31 -205
-65 -30 -13 -54 -20 -54 -16 0 10 178 93 248 116 29 9 51 19 49 22 -16 15
-222 -44 -352 -101 -75 -33 -44 -6 45 38 55 28 149 66 285 115 26 10 23 10
-24 5 -73 -7 -221 -55 -358 -116 -147 -65 -198 -62 -58 3 173 81 406 150 635
189 163 28 160 32 56 -72z m-3193 -255 c157 -233 425 -452 755 -615 56 -27
102 -52 102 -53 0 -4 -63 3 -225 26 -311 45 -643 145 -885 268 l-75 38 -3 94
c-1 52 4 146 12 209 11 98 11 118 -1 138 -11 18 -11 23 -1 26 84 23 129 40
162 59 l38 24 38 -73 c20 -39 58 -103 83 -141z m2280 147 c83 -19 82 -18 63
-39 -16 -17 -16 -29 -7 -113 18 -165 23 -256 16 -296 -6 -39 -9 -41 -103 -85
-302 -141 -617 -231 -937 -267 -55 -6 -113 -13 -130 -15 -17 -3 30 27 110 68
248 128 424 255 578 416 88 93 204 257 246 347 l23 52 45 -28 c24 -16 68 -34
96 -40z m-2647 -117 c-10 -34 -27 -295 -20 -316 6 -19 5 -19 -32 3 -97 59
-102 65 -59 76 47 12 26 26 -29 19 -66 -9 -81 7 -23 25 80 23 86 29 32 29 -27
0 -67 -3 -87 -8 -21 -5 -38 -5 -38 -1 0 10 93 50 117 50 10 0 25 5 33 10 23
15 -72 12 -147 -4 -35 -7 -63 -9 -63 -5 0 12 110 50 162 56 28 3 45 10 41 16
-7 11 -138 2 -196 -14 -43 -12 -56 -7 -38 15 14 17 81 34 200 51 129 19 153
19 147 -2z m2899 2 c135 -20 205 -41 205 -61 0 -12 -6 -15 -22 -10 -58 17
-176 29 -203 21 -28 -8 -25 -9 29 -16 54 -8 174 -54 165 -63 -2 -3 -31 2 -64
10 -33 7 -85 13 -115 13 l-55 -1 45 -14 c78 -24 130 -45 130 -54 0 -4 -17 -4
-37 1 -21 5 -63 8 -93 8 l-55 -1 63 -19 c81 -26 82 -43 2 -34 -62 7 -86 -7
-30 -18 17 -4 30 -10 30 -14 0 -7 -102 -73 -113 -73 -2 0 -7 55 -10 123 -4 67
-9 143 -13 170 -8 56 -13 55 141 32z m-3305 -95 c0 -30 52 -83 158 -158 968
-687 2318 -679 3277 20 74 54 106 84 121 115 l21 42 20 -22 c38 -41 45 -69 54
-206 6 -84 17 -163 30 -207 11 -39 19 -81 17 -95 -2 -17 -29 -44 -90 -89 -425
-317 -1162 -533 -1823 -534 -436 0 -899 90 -1315 255 -220 88 -455 222 -566
322 l-48 44 23 78 c15 50 28 133 36 224 11 141 20 176 53 214 20 22 32 22 32
-3z"/>
<path d="M2717 5565 c-5 -54 -31 -144 -62 -220 -8 -19 -8 -20 12 -2 36 31 66
116 71 198 6 95 -13 116 -21 24z"/>
<path d="M2774 5494 c-9 -42 -36 -113 -58 -160 -39 -78 -40 -82 -15 -58 52 50
92 141 97 221 3 40 2 73 -1 73 -2 0 -13 -34 -23 -76z"/>
<path d="M2822 5464 c-7 -36 -26 -95 -42 -131 -27 -59 -28 -64 -9 -47 36 33
69 111 76 180 8 84 -9 83 -25 -2z"/>
<path d="M2454 4963 c-56 -59 -78 -148 -52 -210 11 -26 12 -24 18 38 4 41 18
89 38 132 17 37 29 67 27 67 -2 0 -16 -12 -31 -27z"/>
<path d="M2545 4896 c-52 -69 -68 -161 -41 -236 13 -34 13 -33 14 40 0 72 27
172 55 208 5 7 7 15 4 18 -3 3 -17 -11 -32 -30z"/>
<path d="M2594 4853 c-54 -58 -75 -135 -54 -197 18 -57 25 -49 25 29 0 61 5
82 32 134 17 33 29 61 27 61 -3 0 -16 -12 -30 -27z"/>
<path d="M4946 5594 c-9 -49 6 -139 30 -186 24 -48 55 -90 62 -84 2 3 0 11 -5
18 -20 25 -54 134 -66 213 -13 79 -13 79 -21 39z"/>
<path d="M4880 5526 c0 -86 58 -220 116 -267 13 -10 11 -1 -9 33 -29 51 -87
214 -87 246 0 12 -4 24 -10 27 -6 4 -10 -11 -10 -39z"/>
<path d="M4841 5484 c-1 -74 20 -140 60 -185 33 -37 33 -35 -6 60 -15 35 -33
91 -40 125 l-13 61 -1 -61z"/>
<path d="M5192 4995 c2 -5 18 -39 36 -75 20 -41 34 -89 38 -128 8 -75 24 -64
24 17 0 64 -25 124 -71 167 -18 16 -30 25 -27 19z"/>
<path d="M5122 4885 c34 -68 51 -146 46 -208 -5 -50 -5 -51 8 -22 33 75 7 201
-53 256 l-25 24 24 -50z"/>
<path d="M5068 4853 c34 -50 52 -112 53 -181 1 -65 1 -66 14 -37 30 65 14 149
-39 213 -34 39 -55 43 -28 5z"/>
<path d="M3663 5279 c-42 -31 -53 -46 -52 -67 1 -61 25 -281 31 -287 7 -8 80
28 96 47 14 18 4 312 -12 333 -9 12 -19 8 -63 -26z"/>
<path d="M3472 5131 l-44 -38 17 -134 c9 -74 19 -137 24 -142 4 -4 28 6 54 23
54 34 54 33 34 220 -14 123 -21 128 -85 71z"/>
<path d="M3321 4996 l-43 -43 18 -118 c11 -71 23 -119 30 -122 7 -3 29 7 49
22 40 31 43 49 24 182 -14 104 -18 123 -27 123 -4 0 -27 -20 -51 -44z"/>
<path d="M3956 5312 c-3 -5 -8 -83 -12 -174 l-7 -164 48 -28 c30 -18 50 -25
57 -18 10 10 39 288 32 307 -3 7 -24 26 -47 42 -59 41 -65 44 -71 35z"/>
<path d="M4131 5058 c-6 -62 -14 -129 -17 -149 -5 -34 -3 -38 46 -69 28 -18
54 -30 57 -26 3 3 14 66 24 138 l18 133 -45 43 c-25 23 -52 42 -59 42 -9 0
-16 -34 -24 -112z"/>
<path d="M4305 5028 c-2 -7 -11 -67 -20 -133 l-17 -120 38 -32 c31 -27 63 -42
64 -30 0 1 9 56 20 122 l19 120 -41 42 c-44 45 -56 51 -63 31z"/>
<path d="M3455 5355 c-5 -2 -40 -6 -77 -10 -58 -6 -68 -9 -68 -26 0 -10 6 -19
13 -19 22 0 238 48 244 54 7 6 -94 7 -112 1z"/>
<path d="M3405 5295 c-5 -2 -27 -6 -47 -10 -37 -6 -56 -35 -23 -35 16 0 168
40 174 46 5 5 -90 4 -104 -1z"/>
<path d="M3373 5238 c-33 -7 -43 -14 -43 -29 0 -25 4 -24 75 11 63 31 52 37
-32 18z"/>
<path d="M4124 5353 c3 -4 59 -17 123 -30 93 -19 118 -21 124 -11 13 20 0 26
-96 37 -103 13 -161 14 -151 4z"/>
<path d="M4232 5280 c89 -30 128 -35 128 -17 0 18 -26 26 -115 32 l-70 5 57
-20z"/>
<path d="M1453 4459 c-49 -14 -46 -24 7 -25 62 -1 126 -25 228 -87 45 -27 84
-48 87 -45 7 7 -136 116 -181 137 -53 25 -101 32 -141 20z"/>
<path d="M1400 4383 l-35 -16 70 -8 c83 -8 128 -27 255 -104 106 -65 227 -125
249 -125 9 0 -15 19 -52 43 -37 23 -112 72 -167 110 -159 108 -247 136 -320
100z"/>
<path d="M1960 3888 c-22 -10 -14 -13 60 -19 47 -4 87 -5 88 -4 5 4 -98 35
-112 34 -6 0 -22 -5 -36 -11z"/>
<path d="M1872 3831 c-45 -12 -124 -42 -120 -47 2 -2 40 3 83 11 44 8 125 14
180 15 70 0 96 3 88 11 -13 13 -187 21 -231 10z"/>
<path d="M1891 3414 c-87 -98 -152 -263 -150 -379 l1 -40 10 35 c5 19 19 67
30 105 26 91 77 202 128 276 22 32 38 59 36 59 -2 0 -27 -25 -55 -56z"/>
<path d="M1968 3422 c-117 -130 -188 -303 -187 -457 l0 -60 19 90 c34 162 83
279 164 399 25 36 44 66 42 66 -2 0 -19 -17 -38 -38z"/>
<path d="M1985 3348 c-93 -122 -150 -280 -160 -442 l-5 -81 25 108 c42 181
100 328 170 431 43 63 21 52 -30 -16z"/>
<path d="M1993 3242 c-46 -67 -88 -165 -107 -250 -17 -73 -33 -231 -23 -222 2
3 13 43 22 90 22 111 76 278 118 363 18 37 31 67 28 67 -3 0 -20 -21 -38 -48z"/>
<path d="M6140 4461 c-49 -15 -109 -51 -170 -102 -34 -28 -59 -53 -57 -56 3
-2 31 12 62 33 99 63 179 96 240 97 64 2 70 12 18 26 -43 12 -58 12 -93 2z"/>
<path d="M6170 4394 c-61 -20 -116 -51 -262 -148 -92 -61 -165 -112 -164 -114
8 -8 117 44 209 100 153 92 221 121 302 128 l70 6 -37 17 c-36 16 -86 21 -118
11z"/>
<path d="M5630 3888 c-46 -13 -66 -32 -25 -24 17 3 54 7 83 8 54 1 68 11 30
22 -29 7 -45 6 -88 -6z"/>
<path d="M5615 3833 c-16 -3 -34 -9 -39 -14 -6 -5 30 -9 95 -9 57 -1 138 -7
179 -14 41 -8 77 -12 79 -10 7 7 -69 35 -121 44 -50 10 -135 11 -193 3z"/>
<path d="M5740 3469 c0 -4 16 -31 36 -60 66 -98 121 -230 149 -354 l13 -60 1
54 c2 112 -65 276 -154 376 -24 28 -44 47 -45 44z"/>
<path d="M5682 3453 c2 -5 25 -42 52 -82 63 -95 109 -203 136 -323 33 -140 41
-154 34 -64 -12 156 -65 287 -167 414 -46 56 -64 75 -55 55z"/>
<path d="M5646 3400 c5 -8 21 -34 37 -57 63 -95 118 -241 158 -419 l19 -89 -4
90 c-9 158 -80 341 -171 440 -26 28 -43 43 -39 35z"/>
<path d="M5650 3287 c0 -4 14 -35 31 -69 51 -101 88 -214 119 -363 l18 -90 1
60 c1 94 -32 235 -78 328 -36 74 -90 153 -91 134z"/>
<path d="M3495 2683 c-11 -3 -27 -11 -35 -18 -8 -7 -32 -16 -53 -19 -62 -11
-91 -57 -71 -109 5 -13 9 -13 35 0 19 10 40 12 57 8 15 -4 38 -9 50 -10 13 -2
26 -6 29 -9 9 -8 -62 -36 -92 -36 -53 0 -22 -33 48 -52 26 -6 47 -15 47 -19 0
-3 -9 -18 -20 -32 -11 -14 -20 -28 -20 -31 0 -10 50 -7 71 4 30 17 25 -28 -8
-62 -23 -24 -24 -28 -9 -34 9 -3 30 -4 46 -2 35 5 37 0 10 -35 l-20 -25 23
-15 c17 -12 19 -18 10 -27 -9 -10 -18 -10 -42 0 -49 20 -88 73 -111 150 -39
130 -136 193 -392 254 -81 20 -189 51 -240 70 -51 19 -94 33 -96 31 -2 -1 6
-21 17 -43 21 -42 96 -114 144 -139 45 -23 25 -26 -58 -9 -100 21 -98 21 -81
-13 17 -31 85 -78 158 -107 27 -11 48 -22 48 -25 0 -9 -82 -19 -152 -19 -55 0
-58 -1 -48 -19 14 -26 118 -77 188 -92 l57 -12 -38 -13 c-21 -7 -71 -16 -112
-20 -60 -5 -73 -9 -64 -20 19 -23 103 -45 199 -51 l95 -6 -55 -19 c-30 -11
-93 -28 -139 -37 -85 -18 -85 -18 -60 -34 41 -27 116 -37 202 -26 43 5 89 14
103 19 14 6 28 10 32 10 15 0 -97 -73 -156 -102 -52 -26 -60 -33 -46 -41 32
-18 155 -2 231 30 l72 31 -26 -52 c-14 -28 -39 -70 -54 -93 -33 -48 -35 -53
-14 -53 29 0 79 32 136 87 l56 54 7 -40 c3 -22 11 -52 16 -67 l11 -27 23 22
c13 12 32 40 42 63 l18 40 22 -51 c13 -28 27 -51 33 -51 5 0 17 20 27 45 l17
46 18 -31 c25 -41 45 -38 57 8 l9 37 11 -26 c6 -15 14 -42 17 -61 l6 -34 -39
4 c-45 4 -87 -14 -145 -63 -21 -18 -58 -38 -82 -45 -25 -7 -45 -18 -45 -24 0
-38 63 -69 113 -55 73 20 -40 -48 -120 -71 -59 -18 -83 -8 -123 50 -51 76 -78
86 -124 48 -61 -51 -76 -68 -76 -88 0 -20 1 -20 22 -6 35 25 66 19 106 -18
l36 -35 -26 -12 c-21 -9 -38 -9 -72 0 -47 12 -96 2 -96 -19 0 -6 -13 -23 -30
-37 -35 -29 -39 -64 -10 -93 24 -24 55 -27 46 -5 -11 29 4 44 43 43 21 0 52 7
69 16 30 15 72 22 72 11 0 -3 -13 -29 -30 -58 -35 -62 -37 -87 -11 -111 27
-25 124 -27 148 -4 16 17 16 18 -4 18 -44 0 -54 10 -47 49 10 54 22 71 50 71
34 0 58 -14 78 -46 17 -25 17 -27 -5 -50 l-22 -24 27 0 c39 0 58 13 90 59 27
39 28 42 12 66 -9 14 -26 25 -39 25 -29 0 -90 37 -82 50 7 11 49 34 80 44 16
5 20 1 22 -20 2 -45 19 -49 38 -10 23 47 34 53 54 29 9 -12 26 -26 38 -32 21
-10 22 -9 21 27 0 22 5 50 13 63 l12 24 14 -32 c16 -41 33 -43 33 -4 0 36 17
49 37 28 34 -34 -14 -108 -96 -147 -28 -13 -51 -27 -51 -31 0 -4 14 -12 30
-18 17 -5 30 -14 30 -20 0 -29 -144 -113 -229 -133 -50 -11 -51 -12 -33 -31
27 -31 76 -47 144 -47 l63 -1 -50 -46 c-27 -25 -74 -59 -103 -76 -59 -33 -58
-45 5 -54 34 -4 106 10 160 33 9 4 11 -10 7 -58 -3 -35 -2 -74 3 -86 l9 -24
67 46 c44 30 69 42 71 34 24 -87 40 -128 60 -153 l25 -30 25 25 c27 26 66 123
66 162 0 22 0 22 28 -4 46 -43 106 -78 115 -69 5 5 8 43 5 85 -3 65 -1 75 12
70 82 -34 146 -41 195 -20 l30 12 -47 24 c-26 12 -75 46 -109 74 l-62 51 81 5
c60 4 89 11 109 26 41 31 38 39 -17 53 -73 19 -160 65 -199 105 l-34 35 26 6
c50 13 51 31 3 49 -82 31 -151 140 -101 160 17 6 35 -22 35 -56 1 -22 1 -22
15 -4 8 11 15 29 15 40 0 41 34 -11 40 -61 l5 -48 35 34 34 33 23 -26 c13 -15
23 -34 23 -43 0 -13 3 -13 15 -3 8 7 15 23 15 36 0 13 2 24 5 24 16 0 95 -46
95 -55 0 -11 -29 -26 -107 -56 -36 -14 -30 -55 16 -100 30 -30 47 -39 72 -39
l34 0 -29 23 -29 24 19 26 c22 30 55 47 89 47 20 0 26 -8 38 -47 12 -42 12
-49 -1 -60 -9 -7 -27 -13 -41 -13 l-26 0 30 -20 c24 -17 39 -19 80 -14 85 11
98 38 54 121 -43 81 -40 87 28 61 31 -11 71 -21 88 -22 26 -1 30 -5 30 -28 -1
-35 18 -36 51 -3 33 33 25 57 -33 113 -51 47 -45 45 -96 31 -44 -12 -97 -4
-97 16 0 17 64 65 87 65 10 0 29 -7 41 -16 21 -14 22 -14 22 10 0 27 -31 66
-53 66 -7 0 -18 9 -25 20 -7 11 -23 20 -37 20 -26 0 -31 -5 -87 -80 -23 -31
-42 -46 -61 -48 -33 -4 -151 40 -187 69 -14 12 -19 18 -12 14 30 -15 93 -7
118 16 34 32 30 43 -18 56 -24 7 -69 32 -101 57 -60 47 -108 63 -152 52 -24
-6 -25 -5 -19 21 4 16 13 44 20 63 l12 35 7 -33 c11 -47 25 -50 57 -12 21 25
28 30 28 17 0 -10 7 -32 16 -48 15 -29 16 -30 34 -14 10 9 22 33 27 53 l9 36
32 -57 c18 -31 39 -57 47 -57 20 0 35 40 35 92 l0 40 44 -49 c46 -50 135 -107
161 -101 12 2 8 13 -16 48 -30 45 -79 134 -79 145 0 3 17 -3 38 -14 60 -30
141 -51 201 -51 88 0 87 11 -2 58 -45 24 -95 54 -112 68 l-30 24 35 -10 c120
-33 243 -30 299 7 l25 16 -62 13 c-35 7 -96 23 -135 36 l-72 23 85 6 c100 8
131 15 185 43 l40 20 -75 8 c-41 4 -95 14 -120 21 l-45 13 72 17 c84 19 138
44 172 81 l24 26 -69 0 c-76 0 -144 9 -144 19 0 3 34 21 75 40 69 31 135 85
135 111 0 12 10 13 -83 -5 -93 -18 -109 -18 -82 -3 81 44 175 144 175 185 0 6
-42 -4 -96 -23 -53 -19 -165 -52 -249 -73 -250 -64 -345 -126 -380 -247 -9
-32 -27 -76 -41 -96 -26 -40 -77 -73 -100 -64 -21 8 -17 34 7 41 l21 7 -21 22
c-28 30 -26 44 4 38 13 -2 31 -2 40 2 12 4 11 11 -10 42 -26 38 -32 64 -16 64
6 0 13 -4 16 -10 3 -5 22 -10 41 -10 l35 0 -20 26 c-29 37 -26 51 12 59 41 9
87 33 87 45 0 6 -13 10 -29 10 -35 0 -91 19 -91 31 0 5 5 10 10 10 6 1 13 2
18 3 69 16 85 16 108 1 23 -15 25 -15 34 10 19 49 -13 92 -77 102 -21 4 -43
12 -50 19 -23 23 -90 26 -179 9 -51 -11 -104 -15 -130 -11 -36 4 -44 3 -44
-10 0 -9 11 -25 24 -37 l24 -21 -29 -34 c-31 -35 -31 -52 2 -52 18 0 16 -5
-13 -44 l-33 -45 -32 37 c-38 44 -39 48 -13 55 27 7 25 20 -9 54 l-28 28 22
17 c12 9 25 26 28 37 4 18 1 19 -42 14 -25 -3 -84 2 -130 11 -84 16 -110 18
-146 9z m379 -658 c1 -5 17 17 35 50 l32 60 -6 -72 c-3 -40 -3 -73 0 -73 2 0
21 24 41 53 25 36 34 44 30 27 -3 -14 -11 -59 -17 -100 -6 -41 -15 -84 -19
-96 -21 -53 -159 -73 -220 -31 -32 21 -35 28 -52 122 -10 55 -16 104 -15 109
2 5 17 -13 35 -40 l32 -49 0 70 1 70 29 -55 c31 -60 32 -60 51 35 l12 60 14
-65 c7 -36 15 -69 17 -75z"/>
<path d="M3780 1963 c-23 -9 -60 -45 -60 -60 0 -18 10 -16 32 4 29 26 124 29
171 5 36 -19 37 -19 37 -1 0 42 -116 75 -180 52z"/>
<path d="M3773 1900 c-28 -11 -30 -36 -4 -50 33 -17 126 -12 151 8 l23 19 -24
16 c-26 19 -108 22 -146 7z"/>
<path d="M3757 3413 c-4 -3 -7 -11 -7 -17 0 -6 5 -5 12 2 6 6 9 14 7 17 -3 3
-9 2 -12 -2z"/>
<path d="M3836 3408 c3 -4 9 -8 15 -8 5 0 9 4 9 8 0 5 -7 9 -15 9 -8 0 -12 -4
-9 -9z"/>
<path d="M3890 3408 c0 -4 7 -8 15 -8 8 0 15 4 15 8 0 5 -7 9 -15 9 -8 0 -15
-4 -15 -9z"/>
<path d="M3707 3358 c-15 -5 -25 -13 -22 -18 6 -9 55 11 55 23 0 4 -1 7 -2 6
-2 0 -15 -5 -31 -11z"/>
<path d="M3835 3359 c-9 -14 -2 -20 14 -10 8 6 9 11 3 15 -6 3 -14 1 -17 -5z"/>
<path d="M3946 3362 c-8 -14 29 -22 45 -10 11 8 11 9 -2 5 -9 -3 -21 -1 -27 5
-6 6 -12 6 -16 0z"/>
<path d="M3781 3351 c-7 -5 -9 -11 -4 -14 4 -3 17 1 28 9 21 16 0 20 -24 5z"/>
<path d="M3875 3350 c-3 -6 1 -7 9 -4 18 7 21 14 7 14 -6 0 -13 -4 -16 -10z"/>
<path d="M3915 3351 c-3 -5 -2 -12 3 -15 5 -3 9 1 9 9 0 17 -3 19 -12 6z"/>
<path d="M3650 3295 c-11 -13 -10 -14 4 -9 9 3 16 10 16 15 0 13 -6 11 -20 -6z"/>
<path d="M3680 3299 c0 -5 10 -9 22 -9 12 0 18 3 14 7 -10 11 -36 12 -36 2z"/>
<path d="M3875 3300 c-18 -8 -17 -9 8 -9 16 -1 26 3 22 9 -3 6 -7 10 -8 9 -1
0 -11 -4 -22 -9z"/>
<path d="M3930 3300 c-20 -12 -5 -24 16 -12 9 5 12 12 7 15 -5 3 -15 2 -23 -3z"/>
<path d="M4003 3295 c-11 -8 -23 -11 -27 -8 -3 3 -6 1 -6 -5 0 -15 1 -15 40 2
18 7 28 16 23 19 -5 3 -19 0 -30 -8z"/>
<path d="M3784 3289 c-4 -6 1 -9 12 -8 11 2 24 0 31 -4 6 -4 15 -2 19 4 4 7 3
9 -4 5 -6 -3 -13 -2 -17 4 -8 13 -32 13 -41 -1z"/>
<path d="M3766 3234 c-4 -9 -4 -19 -1 -22 2 -3 7 3 11 12 4 9 4 19 1 22 -2 3
-7 -3 -11 -12z"/>
<path d="M3810 3239 c0 -5 11 -9 25 -9 14 0 25 2 25 4 0 2 -11 6 -25 8 -14 3
-25 1 -25 -3z"/>
<path d="M3915 3240 c-3 -5 -1 -10 4 -10 6 0 11 5 11 10 0 6 -2 10 -4 10 -3 0
-8 -4 -11 -10z"/>
<path d="M3870 3230 c0 -5 7 -7 15 -4 8 4 15 8 15 10 0 2 -7 4 -15 4 -8 0 -15
-4 -15 -10z"/>
<path d="M5493 939 c-8 -8 13 -40 79 -120 49 -60 94 -109 99 -109 31 0 12 39
-67 134 -48 58 -90 106 -94 106 -3 0 -11 -5 -17 -11z"/>
<path d="M2130 848 c-47 -39 -98 -82 -114 -95 -21 -17 -26 -27 -18 -35 8 -8
21 -2 47 21 l36 31 30 -20 c16 -12 29 -23 29 -26 0 -3 -9 -22 -20 -43 -17 -34
-18 -41 -4 -51 8 -7 16 -11 18 -9 2 2 31 64 65 138 58 125 61 134 44 147 -10
7 -20 13 -23 13 -3 0 -43 -32 -90 -71z m54 -30 c-15 -29 -28 -54 -29 -56 -6
-7 -46 20 -43 28 3 8 89 80 96 80 1 0 -10 -24 -24 -52z"/>
<path d="M5443 899 c-11 -11 -6 -30 57 -189 l21 -55 -90 90 c-82 81 -92 88
-106 74 -14 -14 -5 -25 93 -117 94 -87 112 -100 126 -89 15 11 12 25 -37 155
-39 104 -56 139 -64 131z"/>
<path d="M2247 747 c-31 -57 -57 -115 -57 -130 0 -32 29 -64 66 -73 39 -10 71
20 137 127 60 99 65 109 44 109 -7 0 -37 -41 -66 -91 -58 -98 -92 -130 -120
-112 -32 20 -24 57 35 158 46 78 54 99 43 106 -8 5 -16 9 -19 9 -3 0 -31 -46
-63 -103z"/>
<path d="M5218 763 l-48 -26 66 -126 c36 -69 67 -127 69 -129 3 -3 104 45 114
54 1 1 0 7 -4 13 -4 7 -19 4 -45 -9 l-38 -20 -26 44 c-33 56 -33 61 4 76 17 7
30 19 30 26 0 17 -8 17 -40 -1 -14 -8 -28 -14 -32 -15 -8 0 -52 80 -46 85 2 1
18 10 36 19 32 17 43 36 20 36 -7 0 -34 -12 -60 -27z"/>
<path d="M2467 713 c-28 -32 -30 -65 -4 -121 14 -29 22 -62 20 -73 -11 -42
-71 -48 -89 -9 -7 15 -13 17 -24 10 -13 -9 -10 -15 18 -40 41 -38 75 -38 113
-1 36 36 36 48 3 121 -21 47 -24 62 -15 79 14 26 59 28 77 4 9 -13 16 -15 24
-7 9 9 5 17 -16 33 -32 26 -85 27 -107 4z"/>
<path d="M5075 696 c-19 -13 -19 -16 -2 -127 28 -178 28 -179 44 -179 12 0 13
10 8 53 -7 52 -7 52 26 64 18 7 33 12 34 10 35 -58 65 -81 79 -59 4 7 -132
211 -163 245 -4 4 -16 1 -26 -7z m85 -147 c0 -3 -11 -11 -24 -17 -27 -12 -26
-14 -42 83 l-6 40 36 -50 c20 -27 36 -53 36 -56z"/>
<path d="M2582 549 c-28 -72 -49 -135 -46 -140 15 -25 35 2 79 111 27 66 53
120 58 120 21 0 47 -22 47 -41 0 -11 -7 -33 -15 -49 -13 -25 -22 -30 -51 -30
-40 0 -44 -23 -5 -28 40 -6 71 8 91 41 25 40 25 79 2 100 -17 16 -84 47 -99
47 -4 0 -32 -59 -61 -131z"/>
<path d="M4842 600 c-28 -27 -29 -79 -2 -108 11 -12 38 -27 60 -33 55 -17 76
-42 64 -77 -9 -23 -15 -27 -47 -26 -30 1 -37 -2 -35 -15 6 -28 77 -19 105 13
46 53 17 113 -67 141 -61 20 -78 46 -55 82 13 19 22 23 41 19 17 -5 24 -2 24
9 0 23 -62 19 -88 -5z"/>
<path d="M2769 483 c-23 -71 -44 -133 -46 -139 -2 -6 5 -14 16 -17 18 -4 25
10 66 132 25 75 45 139 45 144 0 4 -9 7 -19 7 -16 0 -27 -23 -62 -127z"/>
<path d="M4743 573 c-19 -7 -17 -15 24 -155 30 -102 41 -128 55 -128 25 0 23
12 -18 152 -39 132 -42 138 -61 131z"/>
<path d="M2920 552 c-62 -31 -107 -156 -80 -222 22 -54 108 -81 129 -41 10 17
8 19 -27 14 -50 -7 -67 14 -66 81 1 57 32 129 63 146 29 15 59 12 69 -6 9 -17
32 -12 32 7 0 9 -59 39 -77 39 -4 0 -24 -8 -43 -18z"/>
<path d="M4570 529 c-13 -6 -26 -11 -28 -13 -1 -2 9 -50 23 -107 47 -188 43
-178 65 -172 11 3 20 6 20 8 0 1 -13 54 -30 116 -36 136 -36 145 -9 152 52 14
81 -78 34 -109 l-25 -16 55 -63 c42 -47 61 -62 75 -58 11 3 20 8 20 11 0 4
-21 28 -47 54 -45 46 -46 47 -30 72 27 40 18 105 -17 128 -15 11 -76 9 -106
-3z"/>
<path d="M3075 518 c-18 -56 -64 -261 -60 -269 19 -29 35 -1 64 114 17 67 34
132 37 145 5 18 2 22 -15 22 -12 0 -24 -6 -26 -12z"/>
<path d="M3155 498 c-19 -59 -44 -220 -36 -240 26 -69 113 -71 145 -4 13 27
56 203 56 228 0 4 -7 8 -15 8 -8 0 -15 -2 -15 -4 0 -20 -42 -199 -51 -219 -19
-43 -71 -47 -84 -7 -5 15 22 167 41 233 4 12 0 17 -16 17 -11 0 -22 -6 -25
-12z"/>
<path d="M4398 489 c-39 -15 -62 -70 -55 -134 6 -60 38 -130 66 -145 50 -26
113 1 127 56 11 44 -3 141 -25 177 -11 18 -32 39 -46 45 -30 14 -31 14 -67 1z
m62 -41 c21 -23 50 -105 50 -144 0 -43 -18 -74 -43 -74 -30 0 -52 25 -72 80
-41 116 2 206 65 138z"/>
<path d="M3332 337 c-13 -72 -25 -136 -25 -142 -1 -5 5 -10 13 -10 11 0 20 28
34 114 11 63 21 110 23 105 1 -5 9 -49 16 -99 7 -50 17 -90 22 -89 6 0 31 41
58 90 38 71 46 82 42 54 -3 -19 -9 -64 -15 -100 -14 -92 -13 -100 10 -100 11
0 20 4 20 8 0 11 28 220 35 255 4 24 2 27 -23 27 -24 0 -32 -9 -67 -77 l-39
-78 -14 88 c-14 84 -16 87 -41 87 -26 0 -26 -2 -49 -133z"/>
<path d="M4255 460 c-7 -12 25 -264 36 -282 12 -20 42 0 36 25 -3 12 -14 77
-23 145 -12 83 -21 122 -30 122 -7 0 -16 -5 -19 -10z"/>
<path d="M4095 440 c-7 -11 16 -265 25 -280 9 -14 122 2 128 18 3 11 -7 13
-44 10 l-49 -3 -7 65 c-3 36 -9 95 -13 133 -5 47 -11 67 -20 67 -8 0 -17 -4
-20 -10z"/>
<path d="M3675 428 c-2 -7 -6 -51 -9 -98 -4 -47 -9 -109 -12 -137 -5 -43 -3
-53 9 -53 19 0 26 29 28 110 1 57 15 138 18 101 2 -33 44 -171 52 -171 4 0 23
39 41 87 l33 87 3 -107 c2 -99 4 -107 22 -107 18 0 20 7 20 93 0 50 3 116 6
145 l7 52 -29 0 c-27 0 -31 -5 -58 -75 -16 -41 -32 -73 -35 -70 -4 2 -16 38
-26 79 -17 68 -22 76 -42 76 -13 0 -25 -6 -28 -12z"/>
<path d="M3949 433 c-26 -4 -26 -4 -22 -86 2 -45 6 -110 9 -145 l6 -63 61 3
c73 4 95 28 24 28 -44 0 -45 1 -51 38 -11 67 -9 71 31 74 52 4 56 28 4 28
l-41 0 0 50 0 50 40 0 c29 0 40 4 40 15 0 15 -37 18 -101 8z"/>
</g>
</svg>
